<svg width="1200" height="675" viewBox="0 0 1200 675" fill="none" xmlns="http://www.w3.org/2000/svg">
  <rect width="1200" height="675" rx="32" fill="#111827"/>
  <rect x="36" y="36" width="1128" height="603" rx="28" fill="url(#paint0_linear)"/>
  <rect x="88" y="88" width="1024" height="499" rx="28" fill="#111111" fill-opacity="0.78"/>
  <path d="M176 190L348 138L508 212L700 140L874 210L1032 162" stroke="#334155" stroke-width="18" stroke-linecap="round"/>
  <path d="M184 346L352 282L508 360L706 286L882 356L1012 302" stroke="#475569" stroke-width="18" stroke-linecap="round"/>
  <path d="M200 494L350 430L540 502L724 430L888 494L1020 442" stroke="#64748B" stroke-width="18" stroke-linecap="round"/>
  <circle cx="508" cy="360" r="18" fill="#1ED760"/>
  <circle cx="724" cy="430" r="18" fill="#1ED760"/>
  <circle cx="874" cy="210" r="18" fill="#1ED760"/>
  <text x="128" y="160" fill="#FFFFFF" font-family="Arial, sans-serif" font-size="52" font-weight="700">Civic Atlas</text>
  <text x="128" y="214" fill="#BBF7D0" font-family="Arial, sans-serif" font-size="24">A map-led directory for communities, resources, and local initiatives</text>
  <defs>
    <linearGradient id="paint0_linear" x1="54" y1="54" x2="1128" y2="621" gradientUnits="userSpaceOnUse">
      <stop stop-color="#1F2937"/>
      <stop offset="0.6" stop-color="#14532D"/>
      <stop offset="1" stop-color="#1ED760"/>
    </linearGradient>
  </defs>
</svg>
